<svg class="w-full" xmlns:dc="http://purl.org/dc/elements/1.1/" xmlns:cc="http://creativecommons.org/ns#" xmlns:rdf="http://www.w3.org/1999/02/22-rdf-syntax-ns#" xmlns:svg="http://www.w3.org/2000/svg" xmlns="http://www.w3.org/2000/svg" xmlns:xlink="http://www.w3.org/1999/xlink" id="svg2092" viewBox="0 0 1024 768" version="1.1">
    <defs id="defs2096"></defs>
    <linearGradient spreadMethod="pad" y2="30%" x2="-10%" y1="120%" x1="30%" id="3d_gradient2-logo-369da07e-324f-4775-a1c8-5e656834d2da">
        <stop id="stop2073" stop-opacity="1" stop-color="#ffffff" offset="0%"></stop>
        <stop id="stop2075" stop-opacity="1" stop-color="#000000" offset="100%"></stop>
    </linearGradient>
    <linearGradient gradientTransform="rotate(-30)" spreadMethod="pad" y2="30%" x2="-10%" y1="120%" x1="30%" id="3d_gradient3-logo-369da07e-324f-4775-a1c8-5e656834d2da">
        <stop id="stop2078" stop-opacity="1" stop-color="#ffffff" offset="0%"></stop>
        <stop id="stop2080" stop-opacity="1" stop-color="#cccccc" offset="50%"></stop>
        <stop id="stop2082" stop-opacity="1" stop-color="#000000" offset="100%"></stop>
    </linearGradient>
    <g id="logo-group">
        <g id="logo-center" transform="translate(0 0)">
            <g id="title" style="font-style:normal;font-weight:400;font-size:72px;line-height:1;font-family:'Brandmark Dots 1 Color';font-variant-ligatures:normal;text-align:center;text-anchor:middle" transform="translate(0 0)">
                <g id="path2143" aria-label="P" transform="translate(0 295.91824) translate(262.8180500000001 37.4) scale(1.25) translate(-332.855 50.4)">
                    <path class="c1" d="M116.52588,101.7917c-1.36816,2.23242-4.32031,2.95215-6.55273,1.51172 c-2.30469-1.36719-2.95215-4.32031-1.58398-6.55176c0.86426-1.44043,1.44043-3.09668,1.44043-4.6084 c0-1.87207-0.43262-7.77734-6.19336-7.77734H90.24365v36.0752c0,2.59277-2.16016,4.75293-4.82422,4.75293 c-2.59277,0-4.75293-2.16016-4.75293-4.75293V79.5417c0-2.5918,2.16016-4.75195,4.75293-4.75195h18.2168 c10.80176,0,15.69727,9,15.69727,17.35352C119.3335,95.3835,118.32568,98.83955,116.52588,101.7917z" transform="translate(252.1885 -125.18975)" stroke-width="0" stroke-linejoin="miter" stroke-miterlimit="2" fill="#009027" stroke="#009027"></path>
                    <path class="c3" d="M99.74854,109.35225c-2.59277,0-4.75293-2.16016-4.75293-4.82422c0-2.5918,2.16016-4.75195,4.75293-4.75195 c2.66406,0,4.75195,2.16016,4.75195,4.75195C104.50049,107.19209,102.4126,109.35225,99.74854,109.35225z" transform="translate(252.1885 -125.18975)" stroke-width="0" stroke-linejoin="miter" stroke-miterlimit="2" fill="#f6f6f6" stroke="#f6f6f6"></path>
                </g>
                <path id="path2145" style="font-style:normal;font-weight:400;font-size:72px;line-height:1;font-family:'Brandmark Dots 1 Color';font-variant-ligatures:normal;text-align:center;text-anchor:middle" d="m 372.84425,-0.432 c 2.376,1.08 5.184,0.072 6.336,-2.304 l 4.536,-9.504 h 24.192 c 1.656,0 3.096,-0.864 3.96,-2.16 1.656,-2.448 0.36,-4.536 -0.432,-6.192 l -12.816,-27.072 c -0.792,-1.656 -2.52,-2.736 -4.32,-2.736 -1.872,0 -3.528,1.08 -4.32,2.736 l -19.44,40.824 c -1.08,2.376 -0.072,5.256 2.304,6.408 z m 21.456,-34.128 6.768,14.112 h -13.464 z m 19.368,24.984 c -2.592,0 -4.752,2.16 -4.752,4.824 0,2.592 2.16,4.752 4.752,4.752 2.664,0 4.824,-2.16 4.824,-4.752 0,-2.664 -2.16,-4.824 -4.824,-4.824 z" stroke-width="0" stroke-linejoin="miter" stroke-miterlimit="2" fill="#009027" stroke="#009027" transform="translate(0 295.91824) translate(315.63418750000005 37.4) scale(1.25) translate(-370.10791 50.4)"></path>
                <path id="path2147" style="font-style:normal;font-weight:400;font-size:72px;line-height:1;font-family:'Brandmark Dots 1 Color';font-variant-ligatures:normal;text-align:center;text-anchor:middle" d="m 463.93775,-34.344 c 0,-9.792 -6.696,-16.056 -16.992,-16.056 h -15.48 c -2.592,0 -4.752,2.16 -4.752,4.752 v 40.896 c 0,2.592 2.16,4.752 4.752,4.752 2.664,0 4.824,-2.16 4.824,-4.752 v -12.96 h 10.44 l 2.16,3.456 c 1.368,2.232 4.32,2.88 6.552,1.44 4.392,-2.808 0.864,-7.416 0.864,-7.416 4.968,-2.808 7.632,-7.92 7.632,-14.112 z m -17.208,8.352 h -10.44 v -15.12 h 10.656 c 4.968,0 7.416,2.952 7.416,7.344 0,4.032 -1.944,7.776 -7.632,7.776 z m 18.72,21.168 c 0,-2.664 -2.088,-4.824 -4.752,-4.824 -2.592,0 -4.752,2.16 -4.752,4.824 0,2.592 2.16,4.752 4.752,4.752 2.664,0 4.752,-2.16 4.752,-4.752 z" stroke-width="0" stroke-linejoin="miter" stroke-miterlimit="2" fill="#29a14a" stroke="#29a14a" transform="translate(0 295.91824) translate(392.64148750000004 37.4) scale(1.25) translate(-426.71375 50.4)"></path>
                <path id="path2149" style="font-style:normal;font-weight:400;font-size:72px;line-height:1;font-family:'Brandmark Dots 1 Color';font-variant-ligatures:normal;text-align:center;text-anchor:middle" d="m 474.09425,-0.432 c 2.376,1.08 5.184,0.072 6.336,-2.304 l 4.536,-9.504 h 24.192 c 1.656,0 3.096,-0.864 3.96,-2.16 1.656,-2.448 0.36,-4.536 -0.432,-6.192 l -12.816,-27.072 c -0.792,-1.656 -2.52,-2.736 -4.32,-2.736 -1.872,0 -3.528,1.08 -4.32,2.736 l -19.44,40.824 c -1.08,2.376 -0.072,5.256 2.304,6.408 z m 21.456,-34.128 6.768,14.112 h -13.464 z m 19.368,24.984 c -2.592,0 -4.752,2.16 -4.752,4.824 0,2.592 2.16,4.752 4.752,4.752 2.664,0 4.824,-2.16 4.824,-4.752 0,-2.664 -2.16,-4.824 -4.824,-4.824 z" stroke-width="0" stroke-linejoin="miter" stroke-miterlimit="2" fill="#52b26c" stroke="#52b26c" transform="translate(0 295.91824) translate(454.69668750000005 37.4) scale(1.25) translate(-471.35791 50.4)"></path>
                <path id="path2151" style="font-style:normal;font-weight:400;font-size:72px;line-height:1;font-family:'Brandmark Dots 1 Color';font-variant-ligatures:normal;text-align:center;text-anchor:middle" d="m 561.22775,-8.064 -17.856,-18.144 6.408,-5.904 c 1.872,-1.872 1.872,-4.896 0,-6.768 -1.872,-1.872 -4.896,-1.8 -6.768,0.072 l -5.472,5.832 v -12.672 c 0,-2.592 -2.16,-4.752 -4.824,-4.752 -2.592,0 -4.752,2.16 -4.752,4.752 v 40.896 c 0,2.592 2.16,4.752 4.752,4.752 2.664,0 4.824,-2.16 4.824,-4.752 v -14.472 l 16.776,17.784 c 1.872,1.872 4.896,1.944 6.768,0.144 1.872,-1.872 1.944,-4.896 0.144,-6.768 z m -9.576,-37.584 c 0,2.664 2.16,4.824 4.752,4.824 2.664,0 4.824,-2.16 4.824,-4.824 0,-2.592 -2.16,-4.752 -4.824,-4.752 -2.592,0 -4.752,2.16 -4.752,4.752 z" stroke-width="0" stroke-linejoin="miter" stroke-miterlimit="2" fill="#7bc38f" stroke="#7bc38f" transform="translate(0 295.91824) translate(531.7039875 37.4) scale(1.25) translate(-527.96375 50.4)"></path>
                <path id="path2153" style="font-style:normal;font-weight:400;font-size:72px;line-height:1;font-family:'Brandmark Dots 1 Color';font-variant-ligatures:normal;text-align:center;text-anchor:middle" d="m 601.49262,0 c 2.664,0 4.75201,-2.16 4.75201,-4.752 0,-2.664 -2.08801,-4.824 -4.75201,-4.824 h -19.65599 v -11.088 h 16.70399 c 2.664,0 4.75201,-1.944 4.75201,-4.536 0,-2.664 -2.08801,-4.608 -4.75201,-4.608 h -16.70399 v -11.016 h 5.11199 c 2.592,0 4.752,-2.16 4.752,-4.824 0,-2.592 -2.16,-4.752 -4.752,-4.752 h -9.936 c -2.592,0 -4.752,2.16 -4.752,4.752 v 40.896 c 0,2.592 2.16,4.752 4.752,4.752 z m 4.53601,-45.648 c 0,-2.592 -2.16001,-4.752 -4.75201,-4.752 -2.664,0 -4.824,2.16 -4.824,4.752 0,2.664 2.16,4.824 4.824,4.824 2.592,0 4.75201,-2.16 4.75201,-4.824 z" stroke-width="0" stroke-linejoin="miter" stroke-miterlimit="2" fill="#a4d4b1" stroke="#a4d4b1" transform="translate(0 295.91824) translate(593.325075 37.4) scale(1.25) translate(-572.26062 50.4)"></path>
                <path id="path2155" style="font-style:normal;font-weight:400;font-size:72px;line-height:1;font-family:'Brandmark Dots 1 Color';font-variant-ligatures:normal;text-align:center;text-anchor:middle" d="m 646.21137,0 c 2.664,0 4.75201,-2.16 4.75201,-4.752 0,-2.664 -2.08801,-4.824 -4.75201,-4.824 h -19.65599 v -11.088 h 16.70399 c 2.664,0 4.75201,-1.944 4.75201,-4.536 0,-2.664 -2.08801,-4.608 -4.75201,-4.608 h -16.70399 v -11.016 h 5.11199 c 2.592,0 4.752,-2.16 4.752,-4.824 0,-2.592 -2.16,-4.752 -4.752,-4.752 h -9.936 c -2.592,0 -4.752,2.16 -4.752,4.752 v 40.896 c 0,2.592 2.16,4.752 4.752,4.752 z m 4.53601,-45.648 c 0,-2.592 -2.16001,-4.752 -4.75201,-4.752 -2.664,0 -4.824,2.16 -4.824,4.752 0,2.664 2.16,4.824 4.824,4.824 2.592,0 4.75201,-2.16 4.75201,-4.824 z" stroke-width="0" stroke-linejoin="miter" stroke-miterlimit="2" fill="#cde5d4" stroke="#cde5d4" transform="translate(0 295.91824) translate(655.4735125 37.4) scale(1.25) translate(-616.97937 50.4)"></path>
                <path id="path2157" style="font-style:normal;font-weight:400;font-size:72px;line-height:1;font-family:'Brandmark Dots 1 Color';font-variant-ligatures:normal;text-align:center;text-anchor:middle" d="m 681.35412,-45.648 c 0,-2.592 -1.872,-4.752 -4.752,-4.752 h -15.192 c -2.592,0 -4.75199,2.16 -4.75199,4.752 0,2.664 2.15999,4.824 4.75199,4.824 h 10.44001 v 36.072 c 0,2.592 2.088,4.752 4.75199,4.752 2.664,0 4.752,-2.16 4.752,-4.752 z m 10.44,-4.752 c -2.66399,0 -4.82399,2.16 -4.82399,4.752 0,2.664 2.16,4.824 4.82399,4.824 2.592,0 4.752,-2.16 4.752,-4.824 0,-2.592 -2.16,-4.752 -4.752,-4.752 z" stroke-width="0" stroke-linejoin="miter" stroke-miterlimit="2" fill="#f6f6f6" stroke="#f6f6f6" transform="translate(0 295.91824) translate(711.3219625 37.4) scale(1.25) translate(-656.65813 50.4)"></path>
            </g>
        </g>
    </g>
</svg>